<svg enable-background="new 0 0 67 67" height="64" viewBox="0 0 64 64" width="64" xmlns="http://www.w3.org/2000/svg"><g transform="translate(-1.5 -1.5)"><path d="m42.89832 25.38049c.83008 0 1.50488-.67041 1.50488-1.49463 0-.83008-.6748-1.50537-1.50488-1.50537-.82422 0-1.49512.67529-1.49512 1.50537 0 .82422.6709 1.49463 1.49512 1.49463z"/><path d="m32.17761 43.24768h2.64355c.39258 0 .71191-.31934.71191-.7124v-4.38477h-4.06737v4.38477c0 .39306.31933.7124.71191.7124z"/><path d="m43.44324 43.24768h2.64355c.39258 0 .71191-.31934.71191-.7124v-4.38477h-4.06738v4.38477c0 .39306.31934.7124.71192.7124z"/><path d="m24.10046 23.50354c.82422 0 1.49512-.67529 1.49512-1.50537 0-.82422-.6709-1.49463-1.49512-1.49463-.83008 0-1.50488.67041-1.50488 1.49463 0 .83008.67481 1.50537 1.50488 1.50537z"/><path d="m23.1571 29.40051c3.56055 0 6.45801-2.89746 6.45801-6.4585s-2.89746-6.45801-6.45801-6.45801-6.45801 2.89697-6.45801 6.45801 2.89747 6.4585 6.45801 6.4585zm.94336-10.89697c1.92676 0 3.49512 1.56787 3.49512 3.49463 0 1.93311-1.56836 3.50537-3.49512 3.50537-1.93262 0-3.50488-1.57227-3.50488-3.50537 0-1.92676 1.57227-3.49463 3.50488-3.49463z"/><path d="m20.91199 43.24768h2.64355c.39258 0 .71191-.31934.71191-.7124v-4.38477h-4.06738v4.38477c0 .39306.31934.7124.71192.7124z"/><path d="m33.5 1.5c-17.64001 0-32 14.35999-32 32 0 17.65002 14.35999 32 32 32s32-14.34998 32-32c0-17.64002-14.35999-32-32-32zm10.34167 12.98401c4.66406 0 8.45801 3.79443 8.45801 8.45801 0 4.66406-3.79395 8.4585-8.45801 8.4585s-8.45801-3.79443-8.45801-8.4585c.00001-4.66358 3.79395-8.45801 8.45801-8.45801zm-20.68457 0c4.66406 0 8.45801 3.79443 8.45801 8.45801 0 4.66406-3.79395 8.4585-8.45801 8.4585s-8.45801-3.79443-8.45801-8.4585c.00001-4.66358 3.79395-8.45801 8.45801-8.45801zm20.20417 41.86322-.00006.00006c-.901.30042-4.336 2.17334-9.86133 2.17334-12.22931 0-22.26825-9.38324-23.36621-21.27832-.02539-.27979.06738-.55811.25684-.76563.18945-.20801.45801-.32617.73926-.32617h44.74023c.28125 0 .5498.11816.73926.32617.18945.20752.28223.48584.25684.76563-.7646 8.28295-5.93849 15.60351-13.50483 19.10492z"/><path d="m48.79871 42.53527c0 1.49561-1.2168 2.7124-2.71191 2.7124h-2.64355c-1.49512 0-2.71191-1.2168-2.71191-2.7124v-4.38477h-3.19824v4.38477c0 1.49561-1.2168 2.7124-2.71191 2.7124h-2.64355c-1.49513 0-2.71191-1.2168-2.71191-2.7124v-4.38477h-3.19824v4.38477c0 1.49561-1.2168 2.7124-2.71191 2.7124h-2.64355c-1.49512 0-2.71191-1.2168-2.71191-2.7124v-4.38477h-5.94531c.95612 6.59802 4.98181 12.40918 10.80469 15.65271v-1.66296c0-1.49414 1.21582-2.70996 2.70996-2.70996h2.64063c1.5 0 2.71973 1.21582 2.71973 2.70996v4.23596c1.59882.17468 3.13403.17499 4.74023-.00043v-4.23553c0-1.49414 1.21973-2.70996 2.71973-2.70996h2.63965c1.49414 0 2.70996 1.21582 2.70996 2.70996v1.66284c5.82361-3.24445 9.84961-9.05518 10.80566-15.65259h-5.94629v4.38477z"/><path d="m41.22937 51.43029h-2.63965c-.39648 0-.71973.31836-.71973.70996v3.92676c1.37036-.28552 2.59583-.65369 4.06934-1.28864v-2.63812c0-.3916-.31836-.70996-.70996-.70996z"/><path d="m43.84167 29.40051c3.56055 0 6.45801-2.89746 6.45801-6.4585s-2.89746-6.45801-6.45801-6.45801-6.45801 2.89697-6.45801 6.45801 2.89747 6.4585 6.45801 6.4585zm-.94335-9.02002c1.93262 0 3.50488 1.57227 3.50488 3.50537 0 1.92676-1.57227 3.49463-3.50488 3.49463-1.92676 0-3.49512-1.56787-3.49512-3.49463 0-1.9331 1.56836-3.50537 3.49512-3.50537z"/><path d="m28.41003 51.43029h-2.64063c-.3916 0-.70996.31836-.70996.70996v2.63788c1.68292.72449 2.95294 1.05609 4.07031 1.28888v-3.92676c.00001-.3916-.32323-.70996-.71972-.70996z"/></g></svg>