<svg xmlns="http://www.w3.org/2000/svg" xmlns:xlink="http://www.w3.org/1999/xlink" version="1.1" x="0px" y="0px" viewBox="0 0 67 83.75" enable-background="new 0 0 67 67" xml:space="preserve"><g><path d="M42.89832,25.38049c0.83008,0,1.50488-0.67041,1.50488-1.49463c0-0.83008-0.6748-1.50537-1.50488-1.50537   c-0.82422,0-1.49512,0.67529-1.49512,1.50537C41.4032,24.71008,42.0741,25.38049,42.89832,25.38049z"/><path d="M32.17761,43.24768h2.64355c0.39258,0,0.71191-0.31934,0.71191-0.7124v-4.38477H31.4657v4.38477   C31.4657,42.92834,31.78503,43.24768,32.17761,43.24768z"/><path d="M43.44324,43.24768h2.64355c0.39258,0,0.71191-0.31934,0.71191-0.7124v-4.38477h-4.06738v4.38477   C42.73132,42.92834,43.05066,43.24768,43.44324,43.24768z"/><path d="M24.10046,23.50354c0.82422,0,1.49512-0.67529,1.49512-1.50537c0-0.82422-0.6709-1.49463-1.49512-1.49463   c-0.83008,0-1.50488,0.67041-1.50488,1.49463C22.59558,22.82825,23.27039,23.50354,24.10046,23.50354z"/><path d="M23.1571,29.40051c3.56055,0,6.45801-2.89746,6.45801-6.4585s-2.89746-6.45801-6.45801-6.45801   s-6.45801,2.89697-6.45801,6.45801S19.59656,29.40051,23.1571,29.40051z M24.10046,18.50354   c1.92676,0,3.49512,1.56787,3.49512,3.49463c0,1.93311-1.56836,3.50537-3.49512,3.50537   c-1.93262,0-3.50488-1.57227-3.50488-3.50537C20.59558,20.07141,22.16785,18.50354,24.10046,18.50354z"/><path d="M20.91199,43.24768h2.64355c0.39258,0,0.71191-0.31934,0.71191-0.7124v-4.38477h-4.06738v4.38477   C20.20007,42.92834,20.51941,43.24768,20.91199,43.24768z"/><path d="M33.5,1.5c-17.64001,0-32,14.35999-32,32c0,17.65002,14.35999,32,32,32s32-14.34998,32-32   C65.5,15.85998,51.14001,1.5,33.5,1.5z M43.84167,14.48401c4.66406,0,8.45801,3.79443,8.45801,8.45801   c0,4.66406-3.79395,8.4585-8.45801,8.4585s-8.45801-3.79443-8.45801-8.4585C35.38367,18.27844,39.17761,14.48401,43.84167,14.48401   z M23.1571,14.48401c4.66406,0,8.45801,3.79443,8.45801,8.45801c0,4.66406-3.79395,8.4585-8.45801,8.4585   s-8.45801-3.79443-8.45801-8.4585C14.6991,18.27844,18.49304,14.48401,23.1571,14.48401z M43.36127,56.34723l-0.00006,0.00006   c-0.901,0.30042-4.336,2.17334-9.86133,2.17334c-12.22931,0-22.26825-9.38324-23.36621-21.27832   c-0.02539-0.27979,0.06738-0.55811,0.25684-0.76563c0.18945-0.20801,0.45801-0.32617,0.73926-0.32617   c21.12781,0,23.84546,0,44.74023,0c0.28125,0,0.5498,0.11816,0.73926,0.32617c0.18945,0.20752,0.28223,0.48584,0.25684,0.76563   C56.1015,45.52526,50.92761,52.84582,43.36127,56.34723z"/><path d="M48.79871,42.53527c0,1.49561-1.2168,2.7124-2.71191,2.7124h-2.64355c-1.49512,0-2.71191-1.2168-2.71191-2.7124v-4.38477   h-3.19824v4.38477c0,1.49561-1.2168,2.7124-2.71191,2.7124h-2.64355c-1.49513,0-2.71191-1.2168-2.71191-2.7124v-4.38477h-3.19824   v4.38477c0,1.49561-1.2168,2.7124-2.71191,2.7124h-2.64355c-1.49512,0-2.71191-1.2168-2.71191-2.7124v-4.38477h-5.94531   c0.95612,6.59802,4.98181,12.40918,10.80469,15.65271v-1.66296c0-1.49414,1.21582-2.70996,2.70996-2.70996h2.64063   c1.5,0,2.71973,1.21582,2.71973,2.70996v4.23596c1.59882,0.17468,3.13403,0.17499,4.74023-0.00043v-4.23553   c0-1.49414,1.21973-2.70996,2.71973-2.70996h2.63965c1.49414,0,2.70996,1.21582,2.70996,2.70996v1.66284   c5.82361-3.24445,9.84961-9.05518,10.80566-15.65259h-5.94629V42.53527z"/><path d="M41.22937,51.43029h-2.63965c-0.39648,0-0.71973,0.31836-0.71973,0.70996v3.92676   c1.37036-0.28552,2.59583-0.65369,4.06934-1.28864v-2.63812C41.93933,51.74865,41.62097,51.43029,41.22937,51.43029z"/><path d="M43.84167,29.40051c3.56055,0,6.45801-2.89746,6.45801-6.4585s-2.89746-6.45801-6.45801-6.45801   s-6.45801,2.89697-6.45801,6.45801S40.28113,29.40051,43.84167,29.40051z M42.89832,20.38049   c1.93262,0,3.50488,1.57227,3.50488,3.50537c0,1.92676-1.57227,3.49463-3.50488,3.49463   c-1.92676,0-3.49512-1.56787-3.49512-3.49463C39.4032,21.95276,40.97156,20.38049,42.89832,20.38049z"/><path d="M28.41003,51.43029h-2.64063c-0.3916,0-0.70996,0.31836-0.70996,0.70996v2.63788   c1.68292,0.72449,2.95294,1.05609,4.07031,1.28888v-3.92676C29.12976,51.74865,28.80652,51.43029,28.41003,51.43029z"/></g><text x="0" y="82" fill="#000000" font-size="5px" font-weight="bold" font-family="'Helvetica Neue', Helvetica, Arial-Unicode, Arial, Sans-serif">Created by Vectors Point</text><text x="0" y="87" fill="#000000" font-size="5px" font-weight="bold" font-family="'Helvetica Neue', Helvetica, Arial-Unicode, Arial, Sans-serif">from the Noun Project</text></svg>