<svg enable-background="new 0 0 100 100" height="43.959" viewBox="0 0 99.771004 43.959" width="99.771004" xmlns="http://www.w3.org/2000/svg"><path d="m61.995 20.416c-2.206-9.251-6.236-20.416-12.854-20.416 0 .005-.002.015-.002.021 0-.006 0-.016 0-.021-6.618 0-10.647 11.165-12.853 20.416h12.853c0-.002 0-.003 0-.005 0 .001.001.003.002.005z"/><path d="m62.259 21.558h-13.12-2.339-10.779c-.392 1.729-.72 3.369-.986 4.828l1.833 1.833 4.083-4.083.009.009.01-.009 4.083 4.083 4.083-4.083.002.002c0-.002 0-.004 0-.006 0 .002.002.004.002.006l.002-.002 4.084 4.083 4.082-4.083.008.009.012-.009 4.083 4.083 1.834-1.833c-.266-1.459-.595-3.1-.986-4.828z"/><path d="m63.506 27.872-2.09 2.091-.005-.004-.004.004-4.091-4.088-4.088 4.088-.002-.004-.006.004-4.083-4.082c0 .029-.002.057-.002.086 0-.029 0-.057 0-.086l-4.081 4.082-.004-.004-.003.004-4.09-4.088-4.089 4.088-.004-.004-.003.004-2.091-2.091c-.478 2.812-.695 4.669-.695 4.669h13.485 1.578 15.063c.001 0-.215-1.858-.695-4.669z"/><path d="m49.887 33.605h-49.887s1.61 10.354 6.589 10.354h43.297 43.295c4.979 0 6.59-10.354 6.59-10.354z"/></svg>