<svg enable-background="new 0 0 100 100" height="42.895828" viewBox="0 0 99.999741 42.895828" width="99.999741" xmlns="http://www.w3.org/2000/svg"><path clip-rule="evenodd" d="m49.9 46.476c1.316-4.832 5.962-6.333 10.34-8.324 2.066-.938 4.285-1.805 6.047-3.251.837-.686 1.69-1.43 2.472-2.211.799-.798 1.712-1.477 2.276-2.34.514-.783.867-2.173 1.95-2.018 1.156.167.823 3.653.65 4.813-.248 1.656-.679 3.106-1.431 4.227-.899 1.344-2.377 2.178-3.317 3.511 7.563-.042 14.032-1.442 19.38-3.836 1.809-.809 3.572-1.673 4.878-2.86.814-.743 1.662-1.802 2.601-2.862.683-.77 1.746-2.531 2.991-2.406 1.11.112 1.248 1.836 1.171 3.121-.208 3.427-1.419 6.763-2.471 9.82-1.079 3.137-2.588 5.75-4.227 8.063 1.311-.181 4.56-2.266 5.786-.649 1.075 1.415-1.183 4.113-1.82 4.878-2.133 2.559-4.313 4.933-7.087 6.696-1.424.904-3.082 1.573-4.162 2.731 1.364-.022 4.656-.431 4.878.976.202 1.3-2.383 2.999-3.252 3.511-1.27.748-3.094 1.593-4.618 2.083-3.417 1.096-7.956 1.119-12.356 1.039-4.046-.072-8.13-.762-10.86-2.275-1.337-.744-2.607-1.821-3.9-2.797-1.793-1.352-4.036-2.58-7.219-2.21-1.916.221-3.217 1.265-4.487 2.21-2.644 1.967-4.961 3.794-8.844 4.553-1.984.388-3.953.477-6.178.52-4.386.087-8.684.02-12.161-1.104-2.522-.815-4.752-1.832-6.568-3.513-.546-.505-1.419-1.246-1.301-2.016.214-1.387 3.204-1.004 4.813-.976-.33-.639-1.181-1.003-1.886-1.431-.716-.434-1.46-.877-2.146-1.301-2.763-1.706-4.958-4.022-7.088-6.632-.81-.992-2.637-3.013-2.081-4.619.737-2.128 4.842.012 6.048.457-.721-1.288-1.649-2.543-2.472-3.969-1.544-2.675-2.587-6.183-3.447-9.625-.437-1.751-1.015-3.617-.846-5.658.069-.825.416-1.81 1.171-1.885 1.199-.122 2.32 1.603 2.991 2.341.932 1.024 1.723 2.073 2.471 2.795 1.275 1.234 3.061 2.108 4.878 2.927 5.316 2.394 11.791 3.866 19.444 3.901-.058-.382-.443-.637-.716-.91-.785-.784-1.859-1.585-2.536-2.601-1.075-1.611-1.919-4.906-1.561-7.804.033-.263.203-.917.521-1.104 1.136-.555 1.708 1.08 2.211 1.82 1.199 1.766 3.041 3.218 4.747 4.617 1.759 1.443 3.954 2.274 6.048 3.251 4.252 1.985 9.051 3.38 10.275 8.326zm-23.15 5.203c-1.397.784-2.76 1.835-2.926 3.511-.206 2.07 1.465 3.551 2.862 4.487 1.649 1.107 3.427 1.814 5.462 1.952 3.092.206 5.322-.696 7.087-1.952 1.187-.845 2.993-2.269 2.797-4.487-.136-1.539-1.808-2.984-2.536-3.446-1.889-1.2-4.821-1.784-7.674-1.561-2.032.159-3.594.665-5.072 1.496zm33.035.454c-.927.7-1.897 1.517-2.017 3.122-.158 2.139 1.634 3.635 2.861 4.487 1.46 1.013 3.34 1.757 5.463 1.887 3.866.233 7.743-1.619 9.299-4.164 1.343-2.192-.092-4.28-1.561-5.332-1.741-1.246-4.944-2.215-8.324-1.95-2.352.183-4.225.819-5.721 1.95z" fill-rule="evenodd" transform="translate(.074111 -28.32005)"/></svg>